<svg width="540" height="540" viewBox="0 0 540 540" fill="none" xmlns="http://www.w3.org/2000/svg">
<rect width="540" height="540" rx="270" fill="url(#paint0_linear_170_63)"/>
<path d="M377.312 420.632C377.312 433.347 370.083 445.537 357.793 451.278C340.911 459.159 320.796 451.845 312.929 434.934L279.306 362.84C277.137 358.177 272.729 355.852 268.335 355.852C263.94 355.852 259.532 358.177 257.363 362.84L223.74 434.934C215.859 451.845 195.759 459.159 178.862 451.278C166.572 445.537 159.343 433.347 159.343 420.632C159.343 415.841 160.364 410.993 162.518 406.372L207.439 310.024C220.494 282.128 245.598 272.092 268.335 272.092C291.071 272.092 316.161 282.128 329.216 310.024L374.137 406.372C376.291 410.993 377.312 415.841 377.312 420.632Z" fill="url(#paint1_linear_170_63)"/>
<path d="M159.343 115.175C159.343 102.46 166.572 90.2692 178.862 84.5283C195.744 76.647 215.859 83.9613 223.726 100.872L257.349 172.966C259.518 177.63 263.926 179.954 268.32 179.954C272.715 179.954 277.123 177.63 279.292 172.966L312.915 100.872C320.796 83.9613 340.896 76.647 357.793 84.5283C370.083 90.2692 377.312 102.46 377.312 115.175C377.312 119.966 376.291 124.814 374.137 129.435L329.216 225.782C316.161 253.679 291.057 263.715 268.32 263.715C245.584 263.715 220.494 253.679 207.439 225.782L162.518 129.435C160.364 124.814 159.343 119.966 159.343 115.175Z" fill="url(#paint2_linear_170_63)"/>
<defs>
<linearGradient id="paint0_linear_170_63" x1="469.8" y1="28.5428" x2="-1.70297e-05" y2="499.886" gradientUnits="userSpaceOnUse">
<stop stop-color="#2C2C2C"/>
<stop offset="1" stop-color="#121212"/>
</linearGradient>
<linearGradient id="paint1_linear_170_63" x1="268.328" y1="272.092" x2="268.328" y2="454.449" gradientUnits="userSpaceOnUse">
<stop stop-color="#FAF9F6"/>
<stop offset="1" stop-color="#E1DDDD"/>
</linearGradient>
<linearGradient id="paint2_linear_170_63" x1="268.328" y1="81.3572" x2="268.328" y2="263.715" gradientUnits="userSpaceOnUse">
<stop stop-color="#FAF9F6"/>
<stop offset="1" stop-color="#E1DDDD"/>
</linearGradient>
</defs>
</svg>
